<?xml version="1.0" standalone="no"?><!DOCTYPE svg PUBLIC "-//W3C//DTD SVG 1.1//EN" "http://www.w3.org/Graphics/SVG/1.1/DTD/svg11.dtd"><svg t="1569293814312" class="icon" viewBox="0 0 1024 1024" version="1.1" xmlns="http://www.w3.org/2000/svg" p-id="914" xmlns:xlink="http://www.w3.org/1999/xlink" width="200" height="200"><defs><style type="text/css"></style></defs><path d="M938.516 597.183H85.484C38.528 597.183 0 559.257 0 511.699c0-46.956 37.926-85.484 85.484-85.484h853.032c46.956 0 85.484 37.926 85.484 85.484 0 47.558-37.926 85.484-85.484 85.484zM512.301 1024c-46.956 0-85.484-37.926-85.484-85.484V85.484C426.817 37.926 464.743 0 512.301 0c46.956 0 85.484 37.926 85.484 85.484v853.634C597.183 985.472 559.257 1024 512.3 1024z m0 0" p-id="915"></path></svg>